<svg width="382" height="692" viewBox="0 0 382 692" fill="none" xmlns="http://www.w3.org/2000/svg">
<mask id="path-1-inside-1_4292_20083" fill="white">
<path d="M1.65775 68.0833C0.569278 69.5558 -0.0010736 71.2104 -2.391e-05 72.8922L-8.58338e-06 425.245C0.00530728 427.308 0.871057 429.317 2.47697 430.995C4.08287 432.674 6.34919 433.937 8.96103 434.609C14.2951 435.994 18.9191 438.584 22.1914 442.02C25.4637 445.455 27.2218 449.566 27.2218 453.782C27.2218 457.997 25.4637 462.108 22.1914 465.543C18.9191 468.979 14.2951 471.569 8.96103 472.954C6.3492 473.627 4.08288 474.89 2.47697 476.568C0.871059 478.246 0.00530958 480.256 -6.10085e-06 482.318L2.58783e-06 682.068C-0.00117464 683.372 0.341882 684.663 1.00965 685.868C1.67742 687.073 2.65677 688.168 3.89174 689.09C5.12671 690.013 6.59309 690.745 8.20708 691.244C9.82108 691.743 11.5511 692 13.2982 692L368.702 692C370.449 692 372.179 691.743 373.793 691.244C375.407 690.745 376.873 690.013 378.108 689.09C379.343 688.168 380.323 687.073 380.99 685.868C381.658 684.663 382.001 683.372 382 682.068L382 482.351C381.995 480.289 381.129 478.279 379.523 476.601C377.917 474.923 375.651 473.66 373.039 472.987C367.705 471.602 363.081 469.012 359.809 465.577C356.536 462.141 354.778 458.03 354.778 453.815C354.778 449.6 356.536 445.489 359.809 442.053C363.081 438.618 367.705 436.028 373.039 434.643C375.651 433.97 377.917 432.707 379.523 431.029C381.129 429.351 381.995 427.341 382 425.279L382 72.9256C382.001 71.6219 381.658 70.3309 380.99 69.1262C380.322 67.9216 379.343 66.8271 378.108 65.9053C376.873 64.9834 375.406 64.2523 373.792 63.7538C372.178 63.2553 370.448 62.9991 368.702 63L13.2981 63.0001C10.9271 62.9965 8.59783 63.4658 6.55131 64.3594C4.50479 65.2531 2.81533 66.5388 1.65775 68.0833ZM337.589 452.113C338.04 452.109 338.481 452.206 338.857 452.392C339.233 452.577 339.527 452.842 339.699 453.153C339.872 453.464 339.916 453.806 339.825 454.135C339.735 454.465 339.515 454.767 339.193 455.002C338.764 455.315 338.188 455.49 337.589 455.49L311.279 455.49C310.83 455.492 310.39 455.394 310.016 455.209C309.641 455.023 309.349 454.759 309.176 454.449C309.003 454.139 308.957 453.798 309.045 453.469C309.132 453.14 309.348 452.838 309.666 452.601C310.098 452.287 310.677 452.112 311.279 452.113L337.589 452.113ZM292.515 452.113C292.964 452.111 293.404 452.209 293.779 452.395C294.154 452.58 294.446 452.844 294.619 453.154C294.791 453.464 294.837 453.805 294.75 454.134C294.662 454.463 294.446 454.765 294.128 455.002C293.696 455.315 293.117 455.49 292.515 455.49L266.205 455.49C265.756 455.492 265.316 455.394 264.942 455.209C264.567 455.023 264.275 454.759 264.102 454.449C263.929 454.139 263.883 453.798 263.971 453.469C264.058 453.14 264.275 452.838 264.593 452.601C265.024 452.287 265.603 452.112 266.205 452.113L292.515 452.113ZM247.441 452.113C247.75 452.098 248.06 452.131 248.351 452.209C248.643 452.288 248.91 452.41 249.135 452.568C249.361 452.726 249.541 452.917 249.664 453.13C249.787 453.342 249.851 453.57 249.851 453.802C249.851 454.033 249.787 454.262 249.664 454.474C249.541 454.686 249.361 454.877 249.135 455.035C248.91 455.193 248.643 455.315 248.351 455.394C248.06 455.472 247.75 455.505 247.441 455.49L221.096 455.49C220.648 455.489 220.211 455.389 219.839 455.203C219.467 455.017 219.177 454.753 219.005 454.445C218.833 454.137 218.787 453.797 218.872 453.469C218.956 453.141 219.169 452.839 219.483 452.601C219.914 452.287 220.493 452.112 221.096 452.113L247.441 452.113ZM202.376 452.113C202.685 452.098 202.995 452.131 203.286 452.209C203.578 452.288 203.845 452.41 204.07 452.568C204.296 452.726 204.476 452.917 204.599 453.13C204.722 453.342 204.786 453.57 204.786 453.802C204.786 454.033 204.722 454.262 204.599 454.474C204.476 454.686 204.296 454.877 204.07 455.035C203.845 455.193 203.578 455.315 203.286 455.394C202.995 455.472 202.685 455.505 202.376 455.49L176.048 455.49C175.602 455.488 175.166 455.387 174.796 455.2C174.425 455.014 174.136 454.75 173.965 454.442C173.794 454.134 173.749 453.795 173.834 453.468C173.919 453.14 174.131 452.839 174.444 452.601C174.874 452.289 175.449 452.114 176.048 452.113L202.376 452.113ZM157.302 452.113C157.599 452.112 157.894 452.155 158.169 452.239C158.444 452.323 158.694 452.447 158.905 452.604C159.115 452.761 159.282 452.947 159.396 453.152C159.51 453.357 159.569 453.576 159.569 453.798C159.571 454.248 159.336 454.68 158.915 455.002C158.481 455.314 157.904 455.489 157.302 455.49L130.992 455.49C130.543 455.492 130.103 455.394 129.728 455.209C129.354 455.023 129.062 454.759 128.889 454.449C128.716 454.139 128.67 453.798 128.758 453.469C128.845 453.14 129.061 452.838 129.379 452.601C129.81 452.286 130.39 452.111 130.992 452.113L157.302 452.113ZM112.228 452.113C112.679 452.109 113.12 452.206 113.496 452.392C113.872 452.577 114.165 452.842 114.338 453.153C114.51 453.464 114.554 453.806 114.464 454.135C114.374 454.465 114.154 454.767 113.832 455.002C113.403 455.315 112.827 455.49 112.228 455.49L85.9184 455.49C85.469 455.492 85.029 455.394 84.6545 455.209C84.2799 455.023 83.9877 454.759 83.8148 454.449C83.642 454.139 83.5963 453.798 83.6837 453.469C83.771 453.14 83.9874 452.838 84.3054 452.601C84.7368 452.287 85.3159 452.112 85.9184 452.113L112.228 452.113ZM67.154 452.113C67.4517 452.112 67.7467 452.155 68.0223 452.239C68.2978 452.323 68.5483 452.447 68.7597 452.604C68.9711 452.76 69.1391 452.946 69.2541 453.151C69.3691 453.356 69.4289 453.576 69.4301 453.798C69.4325 454.022 69.3752 454.243 69.2616 454.45C69.1479 454.656 68.9802 454.844 68.7682 455.001C68.5563 455.159 68.3043 455.283 68.0271 455.367C67.7499 455.451 67.4531 455.493 67.154 455.49L40.8444 455.49C40.5352 455.505 40.2254 455.472 39.934 455.394C39.6426 455.315 39.3758 455.193 39.15 455.035C38.9242 454.877 38.7443 454.686 38.6213 454.474C38.4983 454.262 38.4348 454.033 38.4348 453.802C38.4348 453.57 38.4983 453.342 38.6213 453.13C38.7443 452.917 38.9242 452.726 39.15 452.568C39.3758 452.41 39.6426 452.288 39.934 452.209C40.2254 452.131 40.5352 452.098 40.8444 452.113L67.154 452.113Z"/>
</mask>
<path d="M1.65775 68.0833C0.569278 69.5558 -0.0010736 71.2104 -2.391e-05 72.8922L-8.58338e-06 425.245C0.00530728 427.308 0.871057 429.317 2.47697 430.995C4.08287 432.674 6.34919 433.937 8.96103 434.609C14.2951 435.994 18.9191 438.584 22.1914 442.02C25.4637 445.455 27.2218 449.566 27.2218 453.782C27.2218 457.997 25.4637 462.108 22.1914 465.543C18.9191 468.979 14.2951 471.569 8.96103 472.954C6.3492 473.627 4.08288 474.89 2.47697 476.568C0.871059 478.246 0.00530958 480.256 -6.10085e-06 482.318L2.58783e-06 682.068C-0.00117464 683.372 0.341882 684.663 1.00965 685.868C1.67742 687.073 2.65677 688.168 3.89174 689.09C5.12671 690.013 6.59309 690.745 8.20708 691.244C9.82108 691.743 11.5511 692 13.2982 692L368.702 692C370.449 692 372.179 691.743 373.793 691.244C375.407 690.745 376.873 690.013 378.108 689.09C379.343 688.168 380.323 687.073 380.99 685.868C381.658 684.663 382.001 683.372 382 682.068L382 482.351C381.995 480.289 381.129 478.279 379.523 476.601C377.917 474.923 375.651 473.66 373.039 472.987C367.705 471.602 363.081 469.012 359.809 465.577C356.536 462.141 354.778 458.03 354.778 453.815C354.778 449.6 356.536 445.489 359.809 442.053C363.081 438.618 367.705 436.028 373.039 434.643C375.651 433.97 377.917 432.707 379.523 431.029C381.129 429.351 381.995 427.341 382 425.279L382 72.9256C382.001 71.6219 381.658 70.3309 380.99 69.1262C380.322 67.9216 379.343 66.8271 378.108 65.9053C376.873 64.9834 375.406 64.2523 373.792 63.7538C372.178 63.2553 370.448 62.9991 368.702 63L13.2981 63.0001C10.9271 62.9965 8.59783 63.4658 6.55131 64.3594C4.50479 65.2531 2.81533 66.5388 1.65775 68.0833ZM337.589 452.113C338.04 452.109 338.481 452.206 338.857 452.392C339.233 452.577 339.527 452.842 339.699 453.153C339.872 453.464 339.916 453.806 339.825 454.135C339.735 454.465 339.515 454.767 339.193 455.002C338.764 455.315 338.188 455.49 337.589 455.49L311.279 455.49C310.83 455.492 310.39 455.394 310.016 455.209C309.641 455.023 309.349 454.759 309.176 454.449C309.003 454.139 308.957 453.798 309.045 453.469C309.132 453.14 309.348 452.838 309.666 452.601C310.098 452.287 310.677 452.112 311.279 452.113L337.589 452.113ZM292.515 452.113C292.964 452.111 293.404 452.209 293.779 452.395C294.154 452.58 294.446 452.844 294.619 453.154C294.791 453.464 294.837 453.805 294.75 454.134C294.662 454.463 294.446 454.765 294.128 455.002C293.696 455.315 293.117 455.49 292.515 455.49L266.205 455.49C265.756 455.492 265.316 455.394 264.942 455.209C264.567 455.023 264.275 454.759 264.102 454.449C263.929 454.139 263.883 453.798 263.971 453.469C264.058 453.14 264.275 452.838 264.593 452.601C265.024 452.287 265.603 452.112 266.205 452.113L292.515 452.113ZM247.441 452.113C247.75 452.098 248.06 452.131 248.351 452.209C248.643 452.288 248.91 452.41 249.135 452.568C249.361 452.726 249.541 452.917 249.664 453.13C249.787 453.342 249.851 453.57 249.851 453.802C249.851 454.033 249.787 454.262 249.664 454.474C249.541 454.686 249.361 454.877 249.135 455.035C248.91 455.193 248.643 455.315 248.351 455.394C248.06 455.472 247.75 455.505 247.441 455.49L221.096 455.49C220.648 455.489 220.211 455.389 219.839 455.203C219.467 455.017 219.177 454.753 219.005 454.445C218.833 454.137 218.787 453.797 218.872 453.469C218.956 453.141 219.169 452.839 219.483 452.601C219.914 452.287 220.493 452.112 221.096 452.113L247.441 452.113ZM202.376 452.113C202.685 452.098 202.995 452.131 203.286 452.209C203.578 452.288 203.845 452.41 204.07 452.568C204.296 452.726 204.476 452.917 204.599 453.13C204.722 453.342 204.786 453.57 204.786 453.802C204.786 454.033 204.722 454.262 204.599 454.474C204.476 454.686 204.296 454.877 204.07 455.035C203.845 455.193 203.578 455.315 203.286 455.394C202.995 455.472 202.685 455.505 202.376 455.49L176.048 455.49C175.602 455.488 175.166 455.387 174.796 455.2C174.425 455.014 174.136 454.75 173.965 454.442C173.794 454.134 173.749 453.795 173.834 453.468C173.919 453.14 174.131 452.839 174.444 452.601C174.874 452.289 175.449 452.114 176.048 452.113L202.376 452.113ZM157.302 452.113C157.599 452.112 157.894 452.155 158.169 452.239C158.444 452.323 158.694 452.447 158.905 452.604C159.115 452.761 159.282 452.947 159.396 453.152C159.51 453.357 159.569 453.576 159.569 453.798C159.571 454.248 159.336 454.68 158.915 455.002C158.481 455.314 157.904 455.489 157.302 455.49L130.992 455.49C130.543 455.492 130.103 455.394 129.728 455.209C129.354 455.023 129.062 454.759 128.889 454.449C128.716 454.139 128.67 453.798 128.758 453.469C128.845 453.14 129.061 452.838 129.379 452.601C129.81 452.286 130.39 452.111 130.992 452.113L157.302 452.113ZM112.228 452.113C112.679 452.109 113.12 452.206 113.496 452.392C113.872 452.577 114.165 452.842 114.338 453.153C114.51 453.464 114.554 453.806 114.464 454.135C114.374 454.465 114.154 454.767 113.832 455.002C113.403 455.315 112.827 455.49 112.228 455.49L85.9184 455.49C85.469 455.492 85.029 455.394 84.6545 455.209C84.2799 455.023 83.9877 454.759 83.8148 454.449C83.642 454.139 83.5963 453.798 83.6837 453.469C83.771 453.14 83.9874 452.838 84.3054 452.601C84.7368 452.287 85.3159 452.112 85.9184 452.113L112.228 452.113ZM67.154 452.113C67.4517 452.112 67.7467 452.155 68.0223 452.239C68.2978 452.323 68.5483 452.447 68.7597 452.604C68.9711 452.76 69.1391 452.946 69.2541 453.151C69.3691 453.356 69.4289 453.576 69.4301 453.798C69.4325 454.022 69.3752 454.243 69.2616 454.45C69.1479 454.656 68.9802 454.844 68.7682 455.001C68.5563 455.159 68.3043 455.283 68.0271 455.367C67.7499 455.451 67.4531 455.493 67.154 455.49L40.8444 455.49C40.5352 455.505 40.2254 455.472 39.934 455.394C39.6426 455.315 39.3758 455.193 39.15 455.035C38.9242 454.877 38.7443 454.686 38.6213 454.474C38.4983 454.262 38.4348 454.033 38.4348 453.802C38.4348 453.57 38.4983 453.342 38.6213 453.13C38.7443 452.917 38.9242 452.726 39.15 452.568C39.3758 452.41 39.6426 452.288 39.934 452.209C40.2254 452.131 40.5352 452.098 40.8444 452.113L67.154 452.113Z" fill="white" stroke="#C1C4C4" stroke-width="2" mask="url(#path-1-inside-1_4292_20083)"/>
<path d="M0.5 16C0.5 7.43959 7.43959 0.5 16 0.5H366C374.56 0.5 381.5 7.43959 381.5 16V76.5H0.5V16Z" fill="#F8FCFC" stroke="#C1C4C4"/>
</svg>
